<svg width="32" height="32" viewBox="0 0 32 32" fill="none" xmlns="http://www.w3.org/2000/svg">
    <path d="M7.07677 28.6666C6.40326 28.6666 5.83317 28.4333 5.3665 27.9666C4.89984 27.5 4.6665 26.9299 4.6665 26.2564V8.4103C4.6665 7.73679 4.89984 7.1667 5.3665 6.70003C5.83317 6.23336 6.40326 6.00003 7.07677 6.00003H8.92294V3.17953H10.9742V6.00003H21.0767V3.17953H23.0767V6.00003H24.9228C25.5963 6.00003 26.1664 6.23336 26.6331 6.70003C27.0998 7.1667 27.3331 7.73679 27.3331 8.4103V26.2564C27.3331 26.9299 27.0998 27.5 26.6331 27.9666C26.1664 28.4333 25.5963 28.6666 24.9228 28.6666H7.07677ZM7.07677 26.6667H24.9228C25.0254 26.6667 25.1194 26.6239 25.2049 26.5385C25.2904 26.453 25.3331 26.3589 25.3331 26.2564V13.7436H6.66647V26.2564C6.66647 26.3589 6.7092 26.453 6.79467 26.5385C6.88016 26.6239 6.97419 26.6667 7.07677 26.6667ZM6.66647 11.7437H25.3331V8.4103C25.3331 8.30772 25.2904 8.21369 25.2049 8.1282C25.1194 8.04273 25.0254 8 24.9228 8H7.07677C6.97419 8 6.88016 8.04273 6.79467 8.1282C6.7092 8.21369 6.66647 8.30772 6.66647 8.4103V11.7437ZM15.9998 18.7692C15.6733 18.7692 15.3951 18.6543 15.1652 18.4244C14.9353 18.1945 14.8203 17.9163 14.8203 17.5898C14.8203 17.2633 14.9353 16.9851 15.1652 16.7552C15.3951 16.5253 15.6733 16.4103 15.9998 16.4103C16.3263 16.4103 16.6045 16.5253 16.8344 16.7552C17.0643 16.9851 17.1793 17.2633 17.1793 17.5898C17.1793 17.9163 17.0643 18.1945 16.8344 18.4244C16.6045 18.6543 16.3263 18.7692 15.9998 18.7692ZM10.6665 18.7692C10.34 18.7692 10.0618 18.6543 9.83187 18.4244C9.60196 18.1945 9.487 17.9163 9.487 17.5898C9.487 17.2633 9.60196 16.9851 9.83187 16.7552C10.0618 16.5253 10.34 16.4103 10.6665 16.4103C10.993 16.4103 11.2712 16.5253 11.5011 16.7552C11.731 16.9851 11.8459 17.2633 11.8459 17.5898C11.8459 17.9163 11.731 18.1945 11.5011 18.4244C11.2712 18.6543 10.993 18.7692 10.6665 18.7692ZM21.3331 18.7692C21.0066 18.7692 20.7284 18.6543 20.4985 18.4244C20.2686 18.1945 20.1537 17.9163 20.1537 17.5898C20.1537 17.2633 20.2686 16.9851 20.4985 16.7552C20.7284 16.5253 21.0066 16.4103 21.3331 16.4103C21.6596 16.4103 21.9378 16.5253 22.1677 16.7552C22.3976 16.9851 22.5126 17.2633 22.5126 17.5898C22.5126 17.9163 22.3976 18.1945 22.1677 18.4244C21.9378 18.6543 21.6596 18.7692 21.3331 18.7692ZM15.9998 24C15.6733 24 15.3951 23.885 15.1652 23.6551C14.9353 23.4252 14.8203 23.147 14.8203 22.8205C14.8203 22.494 14.9353 22.2158 15.1652 21.9859C15.3951 21.756 15.6733 21.641 15.9998 21.641C16.3263 21.641 16.6045 21.756 16.8344 21.9859C17.0643 22.2158 17.1793 22.494 17.1793 22.8205C17.1793 23.147 17.0643 23.4252 16.8344 23.6551C16.6045 23.885 16.3263 24 15.9998 24ZM10.6665 24C10.34 24 10.0618 23.885 9.83187 23.6551C9.60196 23.4252 9.487 23.147 9.487 22.8205C9.487 22.494 9.60196 22.2158 9.83187 21.9859C10.0618 21.756 10.34 21.641 10.6665 21.641C10.993 21.641 11.2712 21.756 11.5011 21.9859C11.731 22.2158 11.8459 22.494 11.8459 22.8205C11.8459 23.147 11.731 23.4252 11.5011 23.6551C11.2712 23.885 10.993 24 10.6665 24ZM21.3331 24C21.0066 24 20.7284 23.885 20.4985 23.6551C20.2686 23.4252 20.1537 23.147 20.1537 22.8205C20.1537 22.494 20.2686 22.2158 20.4985 21.9859C20.7284 21.756 21.0066 21.641 21.3331 21.641C21.6596 21.641 21.9378 21.756 22.1677 21.9859C22.3976 22.2158 22.5126 22.494 22.5126 22.8205C22.5126 23.147 22.3976 23.4252 22.1677 23.6551C21.9378 23.885 21.6596 24 21.3331 24Z" fill="black"/>
</svg>
