<svg width="24" height="22" viewBox="0 0 24 22" fill="none" xmlns="http://www.w3.org/2000/svg">
    <path d="M21.2308 2.86957H18.0323L16.4596 0.425652C16.3754 0.29479 16.2613 0.187482 16.1274 0.113235C15.9936 0.0389881 15.8441 9.44624e-05 15.6923 0H8.30769C8.15588 9.44624e-05 8.00643 0.0389881 7.87259 0.113235C7.73875 0.187482 7.62464 0.29479 7.54038 0.425652L5.96654 2.86957H2.76923C2.03479 2.86957 1.33042 3.17189 0.811089 3.71004C0.291757 4.24819 0 4.97807 0 5.73913V19.1304C0 19.8915 0.291757 20.6214 0.811089 21.1595C1.33042 21.6977 2.03479 22 2.76923 22H21.2308C21.9652 22 22.6696 21.6977 23.1889 21.1595C23.7082 20.6214 24 19.8915 24 19.1304V5.73913C24 4.97807 23.7082 4.24819 23.1889 3.71004C22.6696 3.17189 21.9652 2.86957 21.2308 2.86957ZM22.1538 19.1304C22.1538 19.3841 22.0566 19.6274 21.8835 19.8068C21.7104 19.9862 21.4756 20.087 21.2308 20.087H2.76923C2.52442 20.087 2.28963 19.9862 2.11652 19.8068C1.94341 19.6274 1.84615 19.3841 1.84615 19.1304V5.73913C1.84615 5.48545 1.94341 5.24215 2.11652 5.06277C2.28963 4.88339 2.52442 4.78261 2.76923 4.78261H6.46154C6.61355 4.78271 6.76323 4.74391 6.89729 4.66966C7.03135 4.5954 7.14564 4.48799 7.23 4.35696L8.80154 1.91304H15.1973L16.77 4.35696C16.8544 4.48799 16.9687 4.5954 17.1027 4.66966C17.2368 4.74391 17.3865 4.78271 17.5385 4.78261H21.2308C21.4756 4.78261 21.7104 4.88339 21.8835 5.06277C22.0566 5.24215 22.1538 5.48545 22.1538 5.73913V19.1304ZM12 6.69565C10.9959 6.69565 10.0143 7.0042 9.17941 7.58227C8.34452 8.16034 7.6938 8.98198 7.30954 9.94327C6.92527 10.9046 6.82473 11.9624 7.02063 12.9829C7.21652 14.0034 7.70005 14.9408 8.41007 15.6765C9.12009 16.4123 10.0247 16.9133 11.0095 17.1163C11.9944 17.3193 13.0152 17.2151 13.9429 16.8169C14.8705 16.4187 15.6634 15.7444 16.2213 14.8793C16.7792 14.0142 17.0769 12.997 17.0769 11.9565C17.0754 10.5617 16.54 9.22453 15.5882 8.23827C14.6365 7.25201 13.346 6.69723 12 6.69565ZM12 15.3043C11.361 15.3043 10.7364 15.108 10.2051 14.7401C9.67378 14.3723 9.25969 13.8494 9.01516 13.2377C8.77063 12.6259 8.70665 11.9528 8.83131 11.3034C8.95597 10.654 9.26367 10.0575 9.7155 9.58925C10.1673 9.12105 10.743 8.8022 11.3697 8.67302C11.9964 8.54385 12.646 8.61014 13.2364 8.86353C13.8267 9.11692 14.3313 9.54602 14.6863 10.0966C15.0413 10.6471 15.2308 11.2944 15.2308 11.9565C15.2308 12.8444 14.8904 13.696 14.2845 14.3238C13.6786 14.9516 12.8569 15.3043 12 15.3043Z" fill="#ffffff"/>
</svg>
