<svg width="22" height="22" viewBox="0 0 22 22" fill="none" xmlns="http://www.w3.org/2000/svg">
    <path d="M21.7073 20.2925C21.8002 20.3854 21.8739 20.4957 21.9242 20.6171C21.9745 20.7385 22.0004 20.8686 22.0004 21C22.0004 21.1314 21.9745 21.2615 21.9242 21.3829C21.8739 21.5043 21.8002 21.6146 21.7073 21.7075C21.6144 21.8004 21.5041 21.8741 21.3827 21.9244C21.2613 21.9747 21.1312 22.0006 20.9998 22.0006C20.8684 22.0006 20.7383 21.9747 20.6169 21.9244C20.4955 21.8741 20.3852 21.8004 20.2923 21.7075L10.2923 11.7075C10.1993 11.6146 10.1256 11.5043 10.0753 11.3829C10.0249 11.2615 9.99902 11.1314 9.99902 11C9.99902 10.8686 10.0249 10.7385 10.0753 10.6171C10.1256 10.4957 10.1993 10.3854 10.2923 10.2925L20.2923 0.292499C20.4799 0.104858 20.7344 -0.000556951 20.9998 -0.000556946C21.2652 -0.000556941 21.5197 0.104858 21.7073 0.292499C21.895 0.48014 22.0004 0.734635 22.0004 0.999999C22.0004 1.26536 21.895 1.51986 21.7073 1.7075L12.4136 11L21.7073 20.2925ZM2.41356 11L11.7073 1.7075C11.895 1.51986 12.0004 1.26536 12.0004 0.999999C12.0004 0.734635 11.895 0.48014 11.7073 0.292499C11.5197 0.104858 11.2652 -0.000556944 10.9998 -0.000556946C10.7344 -0.000556948 10.48 0.104858 10.2923 0.292499L0.29231 10.2925C0.199334 10.3854 0.125575 10.4957 0.0752504 10.6171C0.0249261 10.7385 -0.000976562 10.8686 -0.000976562 11C-0.000976562 11.1314 0.0249261 11.2615 0.0752504 11.3829C0.125575 11.5043 0.199334 11.6146 0.29231 11.7075L10.2923 21.7075C10.3852 21.8004 10.4955 21.8741 10.6169 21.9244C10.7383 21.9747 10.8684 22.0006 10.9998 22.0006C11.1312 22.0006 11.2613 21.9747 11.3827 21.9244C11.5041 21.8741 11.6144 21.8004 11.7073 21.7075C11.8002 21.6146 11.8739 21.5043 11.9242 21.3829C11.9745 21.2615 12.0004 21.1314 12.0004 21C12.0004 20.8686 11.9745 20.7385 11.9242 20.6171C11.8739 20.4957 11.8002 20.3854 11.7073 20.2925L2.41356 11Z" fill="#FD7E14"/>
</svg>
