<svg width="22" height="22" viewBox="0 0 22 22" fill="none" xmlns="http://www.w3.org/2000/svg">
    <path d="M11.7076 11.7075L1.70757 21.7075C1.51993 21.8951 1.26543 22.0006 1.00007 22.0006C0.734704 22.0006 0.480208 21.8951 0.292568 21.7075C0.104927 21.5199 -0.000488276 21.2654 -0.000488281 21C-0.000488286 20.7346 0.104927 20.4801 0.292568 20.2925L9.58632 11L0.292568 1.7075C0.104927 1.51986 -0.000488281 1.26536 -0.000488281 0.999999C-0.000488281 0.734635 0.104927 0.48014 0.292568 0.292499C0.480208 0.104858 0.734704 -0.000556946 1.00007 -0.000556946C1.26543 -0.000556946 1.51993 0.104858 1.70757 0.292499L11.7076 10.2925C11.8005 10.3854 11.8743 10.4957 11.9246 10.6171C11.975 10.7385 12.0009 10.8686 12.0009 11C12.0009 11.1314 11.975 11.2615 11.9246 11.3829C11.8743 11.5043 11.8005 11.6146 11.7076 11.7075ZM21.7076 10.2925L11.7076 0.292499C11.5199 0.104858 11.2654 -0.000556946 11.0001 -0.000556946C10.7347 -0.000556946 10.4802 0.104858 10.2926 0.292499C10.1049 0.48014 9.99951 0.734635 9.99951 0.999999C9.99951 1.26536 10.1049 1.51986 10.2926 1.7075L19.5863 11L10.2926 20.2925C10.1049 20.4801 9.99951 20.7346 9.99951 21C9.99951 21.2654 10.1049 21.5199 10.2926 21.7075C10.4802 21.8951 10.7347 22.0006 11.0001 22.0006C11.2654 22.0006 11.5199 21.8951 11.7076 21.7075L21.7076 11.7075C21.8005 11.6146 21.8743 11.5043 21.9246 11.3829C21.975 11.2615 22.0009 11.1314 22.0009 11C22.0009 10.8686 21.975 10.7385 21.9246 10.6171C21.8743 10.4957 21.8005 10.3854 21.7076 10.2925Z" fill="#FD7E14"/>
</svg>