<svg width="32" height="32" viewBox="0 0 32 32" fill="none" xmlns="http://www.w3.org/2000/svg">
    <path d="M22.0613 11.9388C22.2011 12.0781 22.312 12.2437 22.3878 12.426C22.4635 12.6083 22.5024 12.8038 22.5024 13.0013C22.5024 13.1987 22.4635 13.3942 22.3878 13.5765C22.312 13.7588 22.2011 13.9244 22.0613 14.0638L15.0613 21.0637C14.9219 21.2036 14.7563 21.3145 14.574 21.3903C14.3917 21.466 14.1962 21.5049 13.9988 21.5049C13.8013 21.5049 13.6059 21.466 13.4235 21.3903C13.2412 21.3145 13.0756 21.2036 12.9363 21.0637L9.93626 18.0637C9.79673 17.9242 9.68605 17.7586 9.61053 17.5763C9.53502 17.394 9.49615 17.1986 9.49615 17.0012C9.49615 16.8039 9.53502 16.6085 9.61053 16.4262C9.68605 16.2439 9.79673 16.0783 9.93626 15.9388C10.0758 15.7992 10.2414 15.6885 10.4237 15.613C10.606 15.5375 10.8014 15.4986 10.9988 15.4986C11.1961 15.4986 11.3915 15.5375 11.5738 15.613C11.7561 15.6885 11.9217 15.7992 12.0613 15.9388L14 17.875L19.9388 11.935C20.0783 11.7958 20.2439 11.6854 20.4262 11.6103C20.6084 11.5351 20.8037 11.4966 21.0008 11.4969C21.1979 11.4973 21.393 11.5365 21.575 11.6123C21.757 11.6881 21.9222 11.799 22.0613 11.9388ZM29.5 16C29.5 18.67 28.7082 21.2801 27.2248 23.5002C25.7414 25.7203 23.633 27.4506 21.1662 28.4724C18.6994 29.4942 15.985 29.7615 13.3663 29.2406C10.7475 28.7197 8.34207 27.434 6.45406 25.5459C4.56606 23.6579 3.28031 21.2525 2.7594 18.6337C2.2385 16.015 2.50585 13.3006 3.52763 10.8338C4.54942 8.36697 6.27974 6.25856 8.49981 4.77516C10.7199 3.29176 13.33 2.5 16 2.5C19.5792 2.50397 23.0107 3.92756 25.5416 6.45844C28.0724 8.98932 29.496 12.4208 29.5 16ZM26.5 16C26.5 13.9233 25.8842 11.8932 24.7304 10.1665C23.5767 8.4398 21.9368 7.09399 20.0182 6.29926C18.0996 5.50454 15.9884 5.29661 13.9516 5.70175C11.9148 6.1069 10.0438 7.10693 8.57538 8.57538C7.10693 10.0438 6.10691 11.9148 5.70176 13.9516C5.29662 15.9884 5.50455 18.0996 6.29927 20.0182C7.09399 21.9368 8.4398 23.5767 10.1665 24.7304C11.8932 25.8842 13.9233 26.5 16 26.5C18.7839 26.497 21.4529 25.3898 23.4213 23.4213C25.3898 21.4528 26.497 18.7839 26.5 16Z" fill="#FD7E14"/>
    </svg>
    