<svg width="29" height="31" viewBox="0 0 29 33" fill="none" xmlns="http://www.w3.org/2000/svg">
    <path d="M18.5 3V1C18.5 0.734784 18.6053 0.48043 18.7929 0.292893C18.9804 0.105357 19.2348 0 19.5 0C19.7652 0 20.0196 0.105357 20.2071 0.292893C20.3946 0.48043 20.5 0.734784 20.5 1V3C20.5 3.26522 20.3946 3.51957 20.2071 3.70711C20.0196 3.89464 19.7652 4 19.5 4C19.2348 4 18.9804 3.89464 18.7929 3.70711C18.6053 3.51957 18.5 3.26522 18.5 3ZM22.9787 5.125C23.136 5.2196 23.3165 5.26852 23.5 5.26625C23.6716 5.26652 23.8404 5.22263 23.9902 5.13878C24.1399 5.05493 24.2655 4.93396 24.355 4.7875L25.355 3.14875C25.4246 3.03661 25.4713 2.9118 25.4924 2.78153C25.5135 2.65125 25.5087 2.51809 25.4781 2.3897C25.4475 2.26132 25.3918 2.14026 25.3142 2.03351C25.2366 1.92676 25.1386 1.83642 25.0259 1.76771C24.9133 1.69899 24.7881 1.65326 24.6577 1.63316C24.5272 1.61305 24.3941 1.61896 24.266 1.65055C24.1378 1.68213 24.0172 1.73877 23.911 1.8172C23.8049 1.89563 23.7153 1.99429 23.6475 2.1075L22.6475 3.745C22.5782 3.85723 22.5317 3.98207 22.5109 4.11232C22.49 4.24258 22.4951 4.37567 22.5259 4.50395C22.5567 4.63222 22.6125 4.75313 22.6903 4.85972C22.768 4.96631 22.866 5.05647 22.9787 5.125ZM28.9087 6.69875C28.8685 6.57374 28.8039 6.45789 28.7189 6.35782C28.6338 6.25774 28.5299 6.17541 28.413 6.11551C28.2961 6.05561 28.1685 6.01933 28.0376 6.00874C27.9067 5.99814 27.775 6.01343 27.65 6.05375L25.775 6.66C25.5477 6.73268 25.3538 6.88426 25.2285 7.08736C25.1032 7.29046 25.0546 7.53168 25.0916 7.76746C25.1286 8.00323 25.2487 8.218 25.4302 8.37298C25.6117 8.52795 25.8426 8.61291 26.0812 8.6125C26.1856 8.6121 26.2893 8.59566 26.3887 8.56375L28.2637 7.9575C28.3893 7.91725 28.5057 7.85255 28.6062 7.76714C28.7066 7.68173 28.7892 7.57729 28.8492 7.45983C28.9091 7.34237 28.9453 7.21421 28.9555 7.08274C28.9657 6.95126 28.9498 6.81906 28.9087 6.69375V6.69875ZM25.1587 11.6912C26.2644 13.593 26.7096 15.8072 26.4249 17.9886C26.1403 20.1699 25.1417 22.1957 23.585 23.75C23.0449 25.6376 21.9611 27.3244 20.4687 28.6001C18.9764 29.8758 17.1415 30.684 15.1929 30.924C13.2443 31.1639 11.2682 30.8249 9.51096 29.9493C7.75373 29.0737 6.29311 27.7002 5.31124 26L0.936241 18.4212C0.66912 17.9579 0.520469 17.4358 0.503473 16.9013C0.486477 16.3667 0.60166 15.8363 0.838808 15.3569C1.07596 14.8775 1.42774 14.4641 1.86295 14.1533C2.29817 13.8424 2.80337 13.6438 3.33374 13.575L2.83374 12.7075C2.57076 12.252 2.42228 11.7394 2.40102 11.2139C2.37977 10.6883 2.48639 10.1655 2.71173 9.69022C2.93707 9.21496 3.27439 8.80149 3.69474 8.48531C4.11508 8.16914 4.60588 7.9597 5.12499 7.875C4.86462 7.15807 4.8647 6.37241 5.12521 5.65553C5.38573 4.93865 5.89008 4.33624 6.54999 3.95375C7.1551 3.60567 7.85606 3.46126 8.54948 3.54184C9.2429 3.62241 9.89207 3.92369 10.4012 4.40125C10.7131 3.95107 11.1337 3.58699 11.6239 3.34284C12.1141 3.09868 12.6581 2.98237 13.2053 3.00469C13.7525 3.02701 14.2852 3.18725 14.7539 3.47052C15.2226 3.75379 15.6121 4.15091 15.8862 4.625L17.3862 7.22375C17.711 6.79848 18.1358 6.45998 18.6228 6.23831C19.1098 6.01663 19.644 5.91863 20.178 5.95301C20.712 5.98738 21.2292 6.15308 21.6838 6.43538C22.1384 6.71768 22.5162 7.10785 22.7837 7.57125L25.1587 11.6912ZM11.99 6.875L12.7312 8.15875C12.9787 8.38479 13.1896 8.64793 13.3562 8.93875L14.8562 11.5325C15.3493 10.8922 16.0616 10.4568 16.8562 10.31L14.155 5.625C13.9892 5.33791 13.7162 5.12842 13.396 5.04263C13.0758 4.95683 12.7346 5.00175 12.4475 5.1675C12.1604 5.33327 11.9509 5.60629 11.8651 5.9265C11.7793 6.24672 11.8242 6.5879 11.99 6.875ZM7.09249 7.39375L7.83374 8.67875L7.87374 8.715C8.11625 8.36387 8.42572 8.06408 8.78437 7.83284C9.14303 7.6016 9.54382 7.44346 9.96374 7.3675L9.25749 6.14375C9.1339 5.92962 8.94959 5.75695 8.72787 5.64758C8.50614 5.53821 8.25697 5.49704 8.01184 5.52928C7.76672 5.56153 7.53667 5.66574 7.35077 5.82874C7.16488 5.99173 7.0315 6.2062 6.96749 6.445C6.92444 6.60354 6.91332 6.76905 6.93478 6.93192C6.95624 7.09479 7.00985 7.25177 7.09249 7.39375ZM21.6987 23.0713C21.9733 22.0566 22.044 20.9976 21.9067 19.9555C21.7693 18.9134 21.4268 17.9089 20.8987 17L18.5237 12.8862C18.3622 12.6093 18.1005 12.405 17.7926 12.3156C17.4847 12.2262 17.1542 12.2586 16.8695 12.4059C16.5848 12.5532 16.3676 12.8043 16.2627 13.1073C16.1579 13.4103 16.1735 13.7419 16.3062 14.0337L17.7337 16.5C17.8664 16.7299 17.9022 17.0031 17.8334 17.2594C17.7646 17.5158 17.5968 17.7343 17.3669 17.8669C17.137 17.9995 16.8638 18.0353 16.6074 17.9665C16.3511 17.8977 16.1326 17.7299 16 17.5L11.625 9.94125C11.4534 9.66946 11.1836 9.47424 10.8718 9.39615C10.56 9.31806 10.23 9.36309 9.95056 9.5219C9.67108 9.68071 9.46352 9.94108 9.371 10.2489C9.27848 10.5568 9.30811 10.8884 9.45374 11.175L12.5325 16.5C12.6023 16.6138 12.6486 16.7405 12.6687 16.8725C12.6887 17.0045 12.6822 17.1392 12.6493 17.2687C12.6165 17.3981 12.5581 17.5197 12.4775 17.6262C12.3969 17.7327 12.2958 17.8219 12.1802 17.8887C12.0646 17.9555 11.9367 17.9985 11.8042 18.0151C11.6717 18.0316 11.5372 18.0215 11.4087 17.9853C11.2802 17.9491 11.1602 17.8875 11.0559 17.8041C10.9515 17.7208 10.865 17.6174 10.8012 17.5L6.72999 10.4575C6.64851 10.3142 6.53949 10.1884 6.40921 10.0874C6.27892 9.98641 6.12995 9.91218 5.97086 9.86899C5.81177 9.8258 5.6457 9.8145 5.48223 9.83575C5.31875 9.85699 5.1611 9.91037 5.01833 9.9928C4.87557 10.0752 4.75052 10.1851 4.65038 10.316C4.55025 10.447 4.477 10.5964 4.43487 10.7558C4.39273 10.9152 4.38254 11.0813 4.40487 11.2447C4.4272 11.408 4.48162 11.5653 4.56499 11.7075L9.06499 19.5025C9.13065 19.6163 9.17326 19.7418 9.19039 19.8721C9.20752 20.0023 9.19884 20.1346 9.16483 20.2615C9.13082 20.3883 9.07215 20.5073 8.99218 20.6115C8.91221 20.7157 8.8125 20.8031 8.69874 20.8687C8.58498 20.9344 8.45941 20.977 8.32918 20.9942C8.19896 21.0113 8.06663 21.0026 7.93976 20.9686C7.8129 20.9346 7.69397 20.8759 7.58977 20.7959C7.48558 20.716 7.39815 20.6163 7.33249 20.5025L4.83249 16.1725C4.66555 15.8877 4.39276 15.6806 4.07364 15.5962C3.75452 15.5118 3.41498 15.5571 3.12912 15.7222C2.84326 15.8872 2.63429 16.1586 2.54781 16.4772C2.46132 16.7957 2.50435 17.1356 2.66749 17.4225L7.04249 25.0012C7.83358 26.3717 9.01333 27.4768 10.4325 28.1767C11.8517 28.8766 13.4466 29.14 15.0155 28.9334C16.5844 28.7268 18.0567 28.0595 19.2463 27.0161C20.436 25.9726 21.2894 24.5998 21.6987 23.0713ZM23.4262 12.6862L21.0512 8.5725C20.8843 8.28774 20.6115 8.08057 20.2924 7.9962C19.9733 7.91183 19.6337 7.95711 19.3479 8.12216C19.062 8.2872 18.853 8.55862 18.7666 8.87717C18.6801 9.19572 18.7231 9.53555 18.8862 9.8225L19.625 11.1038C19.8724 11.3308 20.0832 11.5948 20.25 11.8862L22.625 16C23.2923 17.1533 23.7228 18.4282 23.8912 19.75C24.3626 18.6162 24.5658 17.3889 24.4852 16.1637C24.4045 14.9385 24.0421 13.7485 23.4262 12.6862Z" fill="#6BB56D"/>
</svg>
