<svg width="40" height="40" viewBox="0 0 40 40" fill="none" xmlns="http://www.w3.org/2000/svg">
    <g clip-path="url(#clip0_3326_10002)">
        <path d="M20 40C31.0457 40 40 31.0457 40 20C40 8.9543 31.0457 0 20 0C8.9543 0 0 8.9543 0 20C0 31.0457 8.9543 40 20 40Z" fill="#FEE500"/>
        <path d="M20.0578 9.65259C13.8355 9.65259 8.81738 13.667 8.81738 18.5406C8.81738 21.704 10.9049 24.474 14.0362 26.0556L12.9764 30.014C12.9564 30.0732 12.9533 30.137 12.9675 30.1978C12.9817 30.2588 13.0125 30.3148 13.0567 30.3592C13.121 30.4158 13.2037 30.4472 13.2895 30.4474C13.3606 30.4418 13.4281 30.4136 13.4822 30.3672L18.0426 27.2922C18.7158 27.385 19.3944 27.4332 20.074 27.4366C26.2884 27.4366 31.3144 23.4222 31.3144 18.5406C31.3144 13.659 26.2722 9.65259 20.0578 9.65259Z" fill="#392020"/>
        <path d="M12.7511 17.1355H11.5226C11.3704 17.1399 11.22 17.1009 11.0891 17.0231C11.0309 16.9866 10.981 16.9386 10.9423 16.8819C10.9036 16.8253 10.877 16.7612 10.8643 16.6938C10.8604 16.6511 10.8604 16.6082 10.8643 16.5655C10.8604 16.4855 10.876 16.4058 10.9095 16.3331C10.9431 16.2604 10.9936 16.1969 11.0569 16.1479C11.1969 16.0466 11.3659 15.993 11.5387 15.9953H15.24C15.3935 15.9899 15.5449 16.032 15.6736 16.1158C15.7331 16.1506 15.7841 16.1982 15.823 16.2552C15.8619 16.3121 15.8876 16.3769 15.8984 16.445C15.9023 16.485 15.9023 16.5254 15.8984 16.5655C15.9022 16.6466 15.8867 16.7274 15.8532 16.8014C15.8197 16.8753 15.7692 16.9403 15.7057 16.9909C15.5691 17.0922 15.4018 17.1433 15.232 17.1355H14.0437V21.3588C14.0485 21.4486 14.0346 21.5386 14.0028 21.623C13.971 21.7072 13.9221 21.784 13.859 21.8484C13.7986 21.91 13.726 21.9582 13.6457 21.99C13.5655 22.0218 13.4796 22.0366 13.3934 22.0332C13.2426 22.0374 13.095 21.9892 12.9759 21.8966C12.8624 21.8062 12.7855 21.678 12.7591 21.5354C12.7511 21.4768 12.7511 21.4174 12.7591 21.3588L12.7511 17.1355Z" fill="#FEE500"/>
        <path d="M16.2529 16.3084C16.2883 16.1763 16.3712 16.0619 16.4858 15.9872C16.6079 15.918 16.747 15.8846 16.8872 15.8909H17.1923C17.3411 15.8855 17.4884 15.9217 17.6179 15.9953C17.755 16.0875 17.8525 16.2279 17.8908 16.3887L19.4966 20.925C19.5383 21.0434 19.5731 21.164 19.601 21.2864C19.6037 21.3372 19.6037 21.388 19.601 21.4388C19.6037 21.5172 19.5893 21.595 19.5588 21.6672C19.5283 21.7392 19.4824 21.8038 19.4244 21.8564C19.3681 21.914 19.3006 21.9596 19.226 21.99C19.1514 22.0202 19.0713 22.035 18.9908 22.033C18.867 22.0454 18.7426 22.0156 18.6377 21.9486C18.5329 21.8816 18.4536 21.7812 18.4127 21.6638L18.0755 20.6762H15.9639L15.6267 21.6638C15.5868 21.7836 15.5066 21.886 15.3997 21.9532C15.2928 22.0206 15.1659 22.0488 15.0406 22.033C14.9048 22.0366 14.7718 21.9942 14.6632 21.9126C14.5574 21.8284 14.486 21.7086 14.4625 21.5754C14.4582 21.53 14.4582 21.4842 14.4625 21.4388C14.4487 21.3592 14.4487 21.2778 14.4625 21.198C14.4625 21.1098 14.5187 21.0134 14.5508 20.925L16.2529 16.3084ZM17.0558 17.3602L16.2931 19.7689H17.8105L17.0558 17.3602Z" fill="#FEE500"/>
        <path d="M19.7849 16.5656C19.7767 16.3854 19.8402 16.2093 19.9615 16.0758C20.0232 16.0136 20.0972 15.965 20.1788 15.9332C20.2604 15.9014 20.3478 15.887 20.4352 15.891C20.5856 15.8893 20.7324 15.9373 20.8528 16.0276C20.9642 16.1218 21.0384 16.2528 21.0614 16.3969C21.0694 16.4528 21.0694 16.5096 21.0614 16.5656V20.7888H23.2694C23.4224 20.7868 23.573 20.8284 23.703 20.9092C23.7614 20.9452 23.8116 20.9932 23.8504 21.0498C23.8892 21.1066 23.9156 21.1708 23.9278 21.2384C23.9278 21.2384 23.9278 21.3186 23.9278 21.3588C23.9316 21.4388 23.916 21.5184 23.8826 21.591C23.849 21.6638 23.7984 21.7274 23.7352 21.7764C23.5952 21.8776 23.4262 21.9312 23.2534 21.9288H20.5396C20.3668 21.94 20.195 21.895 20.0498 21.8004C19.92 21.7034 19.8335 21.5592 19.809 21.399C19.8031 21.3108 19.8031 21.2222 19.809 21.134L19.7849 16.5656Z" fill="#FEE500"/>
        <path d="M24.0726 16.5657C24.0678 16.3861 24.1308 16.2112 24.2492 16.076C24.3696 15.9666 24.524 15.902 24.6864 15.8933C24.8486 15.8845 25.009 15.932 25.1404 16.0277C25.2544 16.1211 25.3314 16.252 25.3572 16.397C25.3612 16.4532 25.3612 16.5096 25.3572 16.5657V18.5328L27.3886 16.1883C27.4668 16.1083 27.55 16.0333 27.6374 15.9635C27.72 15.9144 27.8146 15.8893 27.9104 15.8912C28.0508 15.8904 28.188 15.9325 28.3038 16.0117C28.3584 16.0484 28.405 16.0959 28.441 16.151C28.4768 16.2062 28.5012 16.268 28.5126 16.3328C28.5158 16.3487 28.5158 16.3652 28.5126 16.3811C28.5088 16.3996 28.5088 16.4187 28.5126 16.4372C28.5124 16.5217 28.4902 16.6047 28.4484 16.6781C28.4058 16.7559 28.3546 16.8285 28.2958 16.8948L26.963 18.3561L28.5688 20.845V20.9254C28.6522 21.0404 28.7172 21.1678 28.7616 21.3028V21.3428C28.7708 21.436 28.7574 21.5298 28.7224 21.6166C28.6874 21.7032 28.632 21.7802 28.5608 21.8406C28.4268 21.942 28.263 21.9956 28.0952 21.9932C27.9836 21.9978 27.8728 21.9728 27.774 21.921C27.667 21.8492 27.579 21.7528 27.517 21.64L26.0236 19.2313L25.309 19.978V21.3188C25.3138 21.4984 25.2508 21.6732 25.1324 21.8086C25.069 21.8706 24.9936 21.919 24.9106 21.9508C24.8278 21.9824 24.7394 21.997 24.6508 21.9932C24.5026 21.9964 24.358 21.9482 24.2412 21.8568C24.1278 21.7664 24.0508 21.638 24.0244 21.4954C24.0166 21.4368 24.0166 21.3774 24.0244 21.3188L24.0726 16.5657Z" fill="#FEE500"/>
    </g>
    <defs>
        <clipPath id="clip0_3326_10002">
            <rect width="40" height="40" fill="white"/>
        </clipPath>
    </defs>
</svg>
