<svg width="31" height="24" viewBox="0 0 31 24" fill="none" xmlns="http://www.w3.org/2000/svg">
    <path d="M30.4537 0.986326C30.4395 0.741683 30.3358 0.510803 30.1626 0.337519C29.9893 0.164235 29.7584 0.0606131 29.5137 0.0463263C23.0437 -0.328674 17.8487 1.63883 15.6162 5.32383C14.1412 7.76008 14.1437 10.7188 15.5962 13.5413C14.7695 14.5255 14.1653 15.6768 13.825 16.9163L11.7912 14.8751C12.7687 12.8338 12.7312 10.7063 11.6662 8.93883C10.0162 6.21508 6.2075 4.75508 1.47875 5.03258C1.2341 5.04686 1.00322 5.15049 0.829939 5.32377C0.656655 5.49705 0.553033 5.72793 0.538746 5.97258C0.259996 10.7013 1.72125 14.5101 4.445 16.1601C5.34383 16.7092 6.37669 16.9999 7.43 17.0001C8.45237 16.9875 9.45884 16.7453 10.375 16.2913L13.5 19.4163V23.0001C13.5 23.2653 13.6054 23.5196 13.7929 23.7072C13.9804 23.8947 14.2348 24.0001 14.5 24.0001C14.7652 24.0001 15.0196 23.8947 15.2071 23.7072C15.3946 23.5196 15.5 23.2653 15.5 23.0001V19.3138C15.4955 17.7229 16.0369 16.1787 17.0337 14.9388C18.3199 15.611 19.7464 15.9707 21.1975 15.9888C22.6005 15.9934 23.9774 15.6101 25.1762 14.8813C28.8612 12.6513 30.8337 7.45633 30.4537 0.986326ZM5.47625 14.4501C3.55875 13.2888 2.47375 10.5401 2.5 7.00008C6.04 6.97008 8.78875 8.05883 9.95 9.97633C10.5562 10.9763 10.655 12.1426 10.2575 13.3438L7.20625 10.2926C7.01718 10.113 6.76543 10.0143 6.50467 10.0176C6.24391 10.021 5.99477 10.126 5.81037 10.3104C5.62597 10.4948 5.5209 10.744 5.51756 11.0048C5.51422 11.2655 5.61288 11.5173 5.7925 11.7063L8.84375 14.7576C7.6425 15.1551 6.4775 15.0563 5.47625 14.4501ZM24.14 13.1726C22.465 14.1863 20.4962 14.2638 18.4962 13.4226L25.2075 6.71008C25.3871 6.52101 25.4858 6.26926 25.4824 6.0085C25.4791 5.74774 25.374 5.4986 25.1896 5.3142C25.0052 5.1298 24.7561 5.02473 24.4953 5.02139C24.2346 5.01805 23.9828 5.11671 23.7937 5.29633L17.0812 12.0001C16.2362 10.0001 16.3125 8.03008 17.3312 6.35633C19.0737 3.48133 23.2062 1.87883 28.4975 2.00258C28.6175 7.29258 27.0175 11.4301 24.14 13.1726Z" fill="#6BB56D"/>
</svg>
