<svg width="25" height="25" viewBox="0 0 25 25" fill="none" xmlns="http://www.w3.org/2000/svg">
    <path d="M24.7075 4.2925L20.7075 0.292501C20.6146 0.199524 20.5043 0.125765 20.3829 0.0754409C20.2615 0.0251166 20.1314 -0.000785828 20 -0.000785828C19.8686 -0.000785828 19.7385 0.0251166 19.6171 0.0754409C19.4957 0.125765 19.3854 0.199524 19.2925 0.292501L7.2925 12.2925C7.19967 12.3854 7.12605 12.4958 7.07586 12.6172C7.02568 12.7385 6.9999 12.8686 7 13V17C7 17.2652 7.10536 17.5196 7.29289 17.7071C7.48043 17.8946 7.73478 18 8 18H12C12.1314 18.0001 12.2615 17.9743 12.3829 17.9241C12.5042 17.8739 12.6146 17.8003 12.7075 17.7075L24.7075 5.7075C24.8005 5.61463 24.8742 5.50434 24.9246 5.38294C24.9749 5.26154 25.0008 5.13142 25.0008 5C25.0008 4.86859 24.9749 4.73846 24.9246 4.61706C24.8742 4.49566 24.8005 4.38537 24.7075 4.2925ZM11.5863 16H9V13.4138L17 5.41375L19.5863 8L11.5863 16ZM21 6.58625L18.4137 4L20 2.41375L22.5863 5L21 6.58625ZM24 12V23C24 23.5304 23.7893 24.0391 23.4142 24.4142C23.0391 24.7893 22.5304 25 22 25H2C1.46957 25 0.960859 24.7893 0.585786 24.4142C0.210714 24.0391 0 23.5304 0 23V3C0 2.46957 0.210714 1.96086 0.585786 1.58579C0.960859 1.21071 1.46957 1 2 1H13C13.2652 1 13.5196 1.10536 13.7071 1.29289C13.8946 1.48043 14 1.73478 14 2C14 2.26522 13.8946 2.51957 13.7071 2.70711C13.5196 2.89464 13.2652 3 13 3H2V23H22V12C22 11.7348 22.1054 11.4804 22.2929 11.2929C22.4804 11.1054 22.7348 11 23 11C23.2652 11 23.5196 11.1054 23.7071 11.2929C23.8946 11.4804 24 11.7348 24 12Z" fill="#343330"/>
</svg>
