<svg width="25" height="25" viewBox="0 0 25 25" fill="none" xmlns="http://www.w3.org/2000/svg">
    <path d="M13.9442 6.50003V11.9338L18.28 14.6425C18.4983 14.7791 18.6557 15.0004 18.7174 15.2578C18.7791 15.5152 18.74 15.7876 18.6089 16.015C18.4777 16.2424 18.2651 16.4063 18.018 16.4705C17.7708 16.5347 17.5092 16.4941 17.2908 16.3575L12.4893 13.3575C12.3472 13.2686 12.2297 13.1429 12.148 12.9926C12.0664 12.8424 12.0235 12.6727 12.0236 12.5V6.50003C12.0236 6.23481 12.1248 5.98046 12.3049 5.79292C12.485 5.60539 12.7292 5.50003 12.9839 5.50003C13.2386 5.50003 13.4828 5.60539 13.6629 5.79292C13.843 5.98046 13.9442 6.23481 13.9442 6.50003ZM12.9839 0.500037C11.469 0.496108 9.96844 0.805079 8.56899 1.40907C7.16954 2.01306 5.89902 2.90008 4.83095 4.01878C3.95828 4.93878 3.18284 5.82378 2.4206 6.75003V4.50003C2.4206 4.23482 2.31943 3.98046 2.13933 3.79293C1.95924 3.60539 1.71499 3.50003 1.4603 3.50003C1.20561 3.50003 0.961356 3.60539 0.781265 3.79293C0.601174 3.98046 0.5 4.23482 0.5 4.50003V9.50002C0.5 9.76524 0.601174 10.0196 0.781265 10.2071C0.961356 10.3947 1.20561 10.5 1.4603 10.5H6.2618C6.51649 10.5 6.76074 10.3947 6.94083 10.2071C7.12093 10.0196 7.2221 9.76524 7.2221 9.50002C7.2221 9.23481 7.12093 8.98045 6.94083 8.79292C6.76074 8.60538 6.51649 8.50003 6.2618 8.50003H3.50094C4.35921 7.44753 5.21387 6.45628 6.18858 5.42878C7.52322 4.03897 9.22157 3.08954 11.0714 2.69913C12.9213 2.30872 14.8406 2.49463 16.5896 3.23364C18.3385 3.97265 19.8396 5.23199 20.9052 6.85429C21.9707 8.47659 22.5536 10.3899 22.5809 12.3552C22.6082 14.3205 22.0787 16.2506 21.0587 17.9043C20.0386 19.558 18.5732 20.862 16.8454 21.6534C15.1177 22.4448 13.2044 22.6885 11.3445 22.3539C9.48454 22.0194 7.76053 21.1215 6.38784 19.7725C6.2961 19.6822 6.18817 19.6116 6.07023 19.5648C5.9523 19.5179 5.82665 19.4957 5.70047 19.4995C5.57429 19.5032 5.45005 19.5327 5.33484 19.5864C5.21964 19.6402 5.11571 19.717 5.02901 19.8125C4.94232 19.908 4.87454 20.0204 4.82954 20.1432C4.78455 20.2661 4.76323 20.3969 4.7668 20.5283C4.77037 20.6597 4.79875 20.7891 4.85033 20.909C4.90191 21.029 4.97568 21.1372 5.06743 21.2275C6.43519 22.5716 8.09807 23.5467 9.91094 24.0676C11.7238 24.5886 13.6316 24.6396 15.4677 24.2162C17.3039 23.7928 19.0126 22.9079 20.4448 21.6387C21.877 20.3695 22.9892 18.7545 23.6842 16.9348C24.3792 15.115 24.636 13.1458 24.4321 11.199C24.2282 9.25217 23.5698 7.38689 22.5145 5.76595C21.4591 4.145 20.0388 2.81766 18.3775 1.89976C16.7163 0.981867 14.8645 0.501312 12.9839 0.500037Z" fill="#333333"/>
</svg>
