<svg width="28" height="25" viewBox="0 0 28 25" fill="none" xmlns="http://www.w3.org/2000/svg">
    <path d="M0.402683 1.52376C0.672038 1.05614 1.06092 0.668575 1.52946 0.40081C1.99799 0.133046 2.52931 -0.00528348 3.06893 9.53674e-06L24.9314 9.53674e-06C25.4711 -0.00528348 26.0024 0.133046 26.4709 0.40081C26.9394 0.668575 27.3283 1.05614 27.5977 1.52376C27.8605 1.97361 27.999 2.48525 27.999 3.00626C27.999 3.52727 27.8605 4.03891 27.5977 4.48876L16.6689 23.4725C16.3958 23.9376 16.0058 24.3232 15.5377 24.5912C15.0696 24.8591 14.5396 25.0001 14.0002 25.0001C13.4608 25.0001 12.9308 24.8591 12.4627 24.5912C11.9946 24.3232 11.6046 23.9376 11.3314 23.4725L0.400183 4.48876C0.137732 4.03869 -0.000347744 3.52693 9.15527e-05 3.00592C0.00053085 2.48491 0.139474 1.97339 0.402683 1.52376Z" fill="#ffffff"/>
</svg>
