<svg width="26" height="26" viewBox="0 0 26 26" fill="none" xmlns="http://www.w3.org/2000/svg">
    <path d="M13 0C10.4288 0 7.91543 0.762437 5.77759 2.1909C3.63975 3.61935 1.97351 5.64968 0.989572 8.02512C0.0056327 10.4006 -0.251811 13.0144 0.249797 15.5362C0.751405 18.0579 1.98953 20.3743 3.80762 22.1924C5.6257 24.0105 7.94208 25.2486 10.4638 25.7502C12.9856 26.2518 15.5995 25.9944 17.9749 25.0104C20.3503 24.0265 22.3807 22.3603 23.8091 20.2224C25.2376 18.0846 26 15.5712 26 13C25.9964 9.5533 24.6256 6.24882 22.1884 3.81163C19.7512 1.37445 16.4467 0.00363977 13 0ZM13 24C10.8244 24 8.69767 23.3549 6.88873 22.1462C5.07979 20.9375 3.66989 19.2195 2.83733 17.2095C2.00477 15.1995 1.78693 12.9878 2.21137 10.854C2.63581 8.72022 3.68345 6.7602 5.22183 5.22183C6.76021 3.68345 8.72022 2.6358 10.854 2.21136C12.9878 1.78692 15.1995 2.00476 17.2095 2.83733C19.2195 3.66989 20.9375 5.07979 22.1462 6.88873C23.3549 8.69767 24 10.8244 24 13C23.9967 15.9164 22.8367 18.7123 20.7745 20.7745C18.7123 22.8367 15.9164 23.9967 13 24ZM7.00001 10.5C7.00001 10.2033 7.08798 9.91332 7.2528 9.66665C7.41762 9.41997 7.65189 9.22771 7.92598 9.11418C8.20007 9.00065 8.50167 8.97094 8.79264 9.02882C9.08361 9.0867 9.35089 9.22956 9.56067 9.43934C9.77044 9.64912 9.91331 9.91639 9.97118 10.2074C10.0291 10.4983 9.99936 10.7999 9.88583 11.074C9.77229 11.3481 9.58003 11.5824 9.33336 11.7472C9.08669 11.912 8.79668 12 8.50001 12C8.10218 12 7.72065 11.842 7.43935 11.5607C7.15804 11.2794 7.00001 10.8978 7.00001 10.5ZM19 10.5C19 10.7967 18.912 11.0867 18.7472 11.3334C18.5824 11.58 18.3481 11.7723 18.074 11.8858C17.7999 11.9994 17.4983 12.0291 17.2074 11.9712C16.9164 11.9133 16.6491 11.7704 16.4393 11.5607C16.2296 11.3509 16.0867 11.0836 16.0288 10.7926C15.971 10.5017 16.0007 10.2001 16.1142 9.92597C16.2277 9.65189 16.42 9.41762 16.6667 9.2528C16.9133 9.08797 17.2033 9 17.5 9C17.8978 9 18.2794 9.15804 18.5607 9.43934C18.842 9.72064 19 10.1022 19 10.5ZM18.8663 16.5C17.58 18.7238 15.4413 20 13 20C10.5588 20 8.42126 18.725 7.13501 16.5C7.06265 16.3862 7.01407 16.2589 6.99218 16.1258C6.97029 15.9927 6.97555 15.8566 7.00764 15.7256C7.03972 15.5946 7.09797 15.4715 7.17889 15.3636C7.25981 15.2557 7.36171 15.1652 7.47848 15.0978C7.59524 15.0303 7.72445 14.9871 7.85834 14.9708C7.99222 14.9546 8.12801 14.9655 8.25754 15.0031C8.38707 15.0407 8.50766 15.1041 8.61205 15.1895C8.71645 15.2749 8.80249 15.3805 8.86501 15.5C9.79876 17.1138 11.2663 18 13 18C14.7338 18 16.2013 17.1125 17.1338 15.5C17.2664 15.2703 17.4848 15.1026 17.741 15.0339C17.9972 14.9652 18.2703 15.0011 18.5 15.1338C18.7297 15.2664 18.8974 15.4848 18.9661 15.741C19.0348 15.9972 18.9989 16.2703 18.8663 16.5Z" fill="#343330"/>
</svg>