<svg width="25" height="24" viewBox="0 0 25 24" fill="none" xmlns="http://www.w3.org/2000/svg">
<path d="M15.8257 0.00911607C15.1743 0.0776614 14.5571 0.523206 14.2143 1.17439C13.7686 2.06548 10.4771 8.68011 9.82571 9.33129C9.17429 9.98247 8.31714 10.2909 7.35714 10.2909V24H19.3571C20.0771 24 20.6943 23.5545 20.9686 22.9375C20.9686 22.9375 24.5 12.9642 24.5 12.0046C24.5 11.0449 23.7457 10.2909 22.7857 10.2909H17.6429C16.6829 10.2909 15.9286 9.43411 15.9286 8.57729C15.9286 7.72047 17.2657 3.1622 17.54 2.27111C17.8143 1.38002 17.3686 0.420388 16.4771 0.111934C16.2371 0.0433888 16.0657 -0.0251566 15.8257 0.00911607ZM0.5 10.2909V24H3.92857V10.2909H0.5Z" fill="#6BB56D"/>
</svg>
