<svg width="40" height="40" viewBox="0 0 40 40" fill="none" xmlns="http://www.w3.org/2000/svg">
    <circle cx="20" cy="20" r="20" fill="#333333"/>
    <g clip-path="url(#clip0_3628_10476)">
        <path d="M29.7722 24.0366C29.406 24.8751 28.9724 25.6469 28.4701 26.3565C27.7855 27.3239 27.2249 27.9935 26.7929 28.3654C26.123 28.9757 25.4056 29.2883 24.6371 29.3061C24.0854 29.3061 23.4203 29.1506 22.6458 28.835C21.8689 28.5209 21.1549 28.3654 20.5021 28.3654C19.8174 28.3654 19.0831 28.5209 18.2977 28.835C17.511 29.1506 16.8773 29.315 16.3928 29.3313C15.6559 29.3624 14.9215 29.0409 14.1884 28.3654C13.7204 27.9609 13.1352 27.2676 12.434 26.2854C11.6818 25.2365 11.0633 24.0203 10.5788 22.6337C10.0599 21.136 9.7998 19.6857 9.7998 18.2816C9.7998 16.6731 10.1505 15.2859 10.853 14.1234C11.4051 13.1897 12.1395 12.4531 13.0588 11.9124C13.978 11.3717 14.9713 11.0961 16.0409 11.0785C16.6262 11.0785 17.3937 11.2579 18.3474 11.6105C19.2985 11.9642 19.9092 12.1436 20.1769 12.1436C20.3771 12.1436 21.0556 11.9339 22.2056 11.5157C23.2932 11.1278 24.2111 10.9672 24.963 11.0305C27.0006 11.1934 28.5314 11.9894 29.5495 13.4235C27.7272 14.5176 26.8258 16.0502 26.8436 18.0162C26.8601 19.5476 27.4207 20.8218 28.5224 21.8337C29.0218 22.3034 29.5794 22.6662 30.1998 22.924C30.0653 23.3108 29.9232 23.6811 29.7722 24.0366ZM25.0991 5.81347C25.0991 7.01374 24.6565 8.13443 23.7745 9.17173C22.7101 10.4049 21.4226 11.1174 20.0266 11.005C20.0088 10.861 19.9985 10.7095 19.9985 10.5502C19.9985 9.39794 20.5046 8.1648 21.4036 7.15654C21.8524 6.64603 22.4231 6.22156 23.1152 5.88294C23.806 5.54938 24.4592 5.36492 25.0736 5.33333C25.0915 5.49379 25.0991 5.65427 25.0991 5.81347Z" fill="white"/>
    </g>
    <defs>
        <clipPath id="clip0_3628_10476">
            <rect width="24.4" height="24" fill="white" transform="translate(7.7998 5.33333)"/>
        </clipPath>
    </defs>
</svg>
