<svg width="40" height="40" viewBox="0 0 40 40" fill="none" xmlns="http://www.w3.org/2000/svg">
<circle cx="20" cy="20" r="19.5" fill="white" stroke="#C4C8CC"/>
<g clip-path="url(#clip0_3628_10456)">
<path fill-rule="evenodd" clip-rule="evenodd" d="M31.04 20.2614C31.04 19.4459 30.9668 18.6618 30.8309 17.9091H20V22.3575H26.1891C25.9225 23.795 25.1123 25.013 23.8943 25.8284V28.7139H27.6109C29.7855 26.7118 31.04 23.7637 31.04 20.2614Z" fill="#4285F4"/>
<path fill-rule="evenodd" clip-rule="evenodd" d="M20 31.4998C23.105 31.4998 25.7081 30.47 27.6109 28.7137L23.8943 25.8282C22.8645 26.5182 21.5472 26.9259 20 26.9259C17.0047 26.9259 14.4695 24.903 13.5652 22.1848H9.72314V25.1644C11.6154 28.9228 15.5045 31.4998 20 31.4998Z" fill="#34A853"/>
<path fill-rule="evenodd" clip-rule="evenodd" d="M13.5652 22.1851C13.3352 21.4951 13.2045 20.758 13.2045 20.0001C13.2045 19.2421 13.3352 18.5051 13.5652 17.8151V14.8355H9.72318C8.94432 16.388 8.5 18.1444 8.5 20.0001C8.5 21.8557 8.94432 23.6121 9.72318 25.1646L13.5652 22.1851Z" fill="#FBBC05"/>
<path fill-rule="evenodd" clip-rule="evenodd" d="M20 13.0739C21.6884 13.0739 23.2043 13.6541 24.3961 14.7936L27.6945 11.4952C25.7029 9.63955 23.0997 8.5 20 8.5C15.5045 8.5 11.6154 11.0771 9.72314 14.8355L13.5652 17.815C14.4695 15.0968 17.0047 13.0739 20 13.0739Z" fill="#EA4335"/>
</g>
<defs>
<clipPath id="clip0_3628_10456">
<rect width="24" height="24" fill="white" transform="translate(8 8)"/>
</clipPath>
</defs>
</svg>
